<svg xmlns="http://www.w3.org/2000/svg" viewBox="0 0 24 24" width="50" height="50">
    <path fill="#FFD700" d="M12 4c.6 0 1-.4 1-1V1c0-.6-.4-1-1-1s-1 .4-1 1v2c0 .6.4 1 1 1zm0 16c-.6 0-1 .4-1 1v2c0 .6.4 1 1 1s1-.4 1-1v-2c0-.6-.4-1-1-1zM4 12c0-.6-.4-1-1-1H1c-.6 0-1 .4-1 1s.4 1 1 1h2c.6 0 1-.4 1-1zm16 0c.6 0 1 .4 1 1h2c.6 0 1-.4 1-1s-.4-1-1-1h-2c-.6 0-1 .4-1 1zM6.3 6.3c.4-.4.4-1 0-1.4L4.6 3.2c-.4-.4-1-.4-1.4 0s-.4 1 0 1.4l1.7 1.7c.4.4 1 .4 1.4 0zm11.4 11.4c-.4.4-.4 1 0 1.4l1.7 1.7c.4.4 1 .4 1.4 0s.4-1 0-1.4l-1.7-1.7c-.4-.4-1-.4-1.4 0zM17.7 6.3c.4-.4 1-.4 1.4 0l1.7 1.7c.4.4.4 1 0 1.4s-1 .4-1.4 0L17.7 7.7c-.4-.4-.4-1 0-1.4zm-11.4 11.4c-.4.4-1 .4-1.4 0L3.2 17.7c-.4-.4-.4-1 0-1.4s1-.4 1.4 0l1.7 1.7c.4.4.4 1 0 1.4z"/>
    <circle cx="12" cy="12" r="5" fill="#8B4513"/>
</svg>